<svg xmlns="http://www.w3.org/2000/svg" viewBox="0 0 50 50" width="50px" height="50px">
  <path d="M 9 4 C 6.25 4 4 6.25 4 9 V 41 C 4 43.75 6.25 46 9 46 H 41 C 43.75 46 46 43.75 46 41 V 9 C 46 6.25 43.75 4 41 4 H 9 Z M 9 6 H 41 C 42.67 6 44 7.33 44 9 V 41 C 44 42.67 42.67 44 41 44 H 9 C 7.33 44 6 42.67 6 41 V 9 C 6 7.33 7.33 6 9 6 Z M 23.84 10 C 20.6 10.03 17.42 12.02 16.12 14.96 C 15.33 16.52 15 18.27 15 20 C 15 24 16.1 26.96 17.7 28.39 C 19.35 30.1 22 31 24 31 C 26 31 29.14 29.95 30 28 C 30 32 29 35 24 35 C 22 35 20.69 33.57 20.48 33.04 C 19 32.99 15.89 32.97 15 33 C 15.5 35.82 17.77 38.29 20.53 39.26 C 24.27 40.59 28.8 40.16 31.97 37.72 C 33.89 36.25 35.03 33.87 35 31.5 V 11 C 33.18 10.96 31.82 11 30 11 C 30 11.84 29.96 12.16 30 13 C 29.11 11.12 26.59 10.07 24.48 10 H 23.84 Z M 25.52 15 C 27.09 15 28.67 15.81 29.28 17.16 C 30.13 19.17 30.28 21.46 29.45 23.5 C 28.74 24.86 27.31 26.15 25.52 25.99 C 23.23 26.15 21.58 24.14 21.19 22.3 C 20.87 20.59 20.9 18.71 21.73 17.1 C 22.4 15.71 23.91 15.03 25.52 15 Z"/>
</svg>
